<svg width="16" height="16" viewBox="0 0 16 16" fill="none" xmlns="http://www.w3.org/2000/svg">
<path d="M7.5 8.25C7.5 7.83579 7.83579 7.5 8.25 7.5C8.66421 7.5 9 7.83579 9 8.25C9 8.66421 8.66421 9 8.25 9C7.83579 9 7.5 8.66421 7.5 8.25Z" stroke="black" style="stroke:black;stroke-opacity:1;" stroke-width="1.5"/>
<path d="M2.5 8.25C2.5 7.83579 2.83579 7.5 3.25 7.5C3.66421 7.5 4 7.83579 4 8.25C4 8.66421 3.66421 9 3.25 9C2.83579 9 2.5 8.66421 2.5 8.25Z" stroke="black" style="stroke:black;stroke-opacity:1;" stroke-width="1.5"/>
<path d="M12.5 8.25C12.5 7.83579 12.8358 7.5 13.25 7.5C13.6642 7.5 14 7.83579 14 8.25C14 8.66421 13.6642 9 13.25 9C12.8358 9 12.5 8.66421 12.5 8.25Z" stroke="black" style="stroke:black;stroke-opacity:1;" stroke-width="1.5"/>
</svg>
