<svg width="16" height="16" viewBox="0 0 16 16" fill="none" xmlns="http://www.w3.org/2000/svg">
<path d="M6 1.2918C5.33309 1.49063 4.69594 1.78887 4.11101 2.17971C2.95987 2.94888 2.06266 4.04213 1.53285 5.32122C1.00303 6.6003 0.86441 8.00776 1.13451 9.36563C1.4046 10.7235 2.07129 11.9708 3.05026 12.9497C4.02922 13.9287 5.2765 14.5954 6.63437 14.8655C7.99224 15.1356 9.3997 14.997 10.6788 14.4672C11.9579 13.9373 13.0511 13.0401 13.8203 11.889C14.2111 11.3041 14.5094 10.6669 14.7082 10M9.5 8H14.5882C14.8156 8 15 7.81565 15 7.58824C15 3.94965 12.0503 1 8.41176 1C8.18435 1 8 1.18435 8 1.41176V6.5C8 7.32843 8.67157 8 9.5 8Z" stroke="black" style="stroke:black;stroke-opacity:1;" stroke-width="1.5" stroke-linecap="round"/>
</svg>
