<svg width="16" height="16" viewBox="0 0 16 16" fill="none" xmlns="http://www.w3.org/2000/svg">
<path d="M12.9497 12.9497C13.5997 12.2997 14.1153 11.5281 14.4671 10.6788C14.8189 9.82951 15 8.91925 15 8C15 7.08075 14.8189 6.1705 14.4671 5.32122C14.1153 4.47194 13.5997 3.70026 12.9497 3.05025M10.8284 10.8284C11.1998 10.457 11.4944 10.016 11.6955 9.53073C11.8965 9.04543 11.9999 8.52528 11.9999 8C11.9999 7.47471 11.8965 6.95457 11.6955 6.46926C11.4944 5.98396 11.1998 5.543 10.8284 5.17157M1 7.37574V8.62426C1 9.38406 1.61594 10 2.37574 10C2.77245 10 3.14985 10.1713 3.41108 10.4698L6.05179 13.4878C6.33662 13.8133 6.74811 14 7.18065 14H8V2H7.18065C6.74811 2 6.33662 2.18672 6.05179 2.51224L3.41108 5.53019C3.14985 5.82875 2.77245 6 2.37574 6C1.61594 6 1 6.61594 1 7.37574Z" stroke="black" style="stroke:black;stroke-opacity:1;" stroke-width="1.5" stroke-linecap="round" stroke-linejoin="round"/>
</svg>
