<svg width="16" height="16" viewBox="0 0 16 16" fill="none" xmlns="http://www.w3.org/2000/svg">
<path d="M1 15H1.01M3.63831 13.5C3.22409 13.5 2.88831 13.1642 2.88831 12.75C2.88831 12.3358 3.22409 12 3.63831 12C4.05252 12 4.38831 12.3358 4.38831 12.75C4.38831 13.1642 4.05252 13.5 3.63831 13.5ZM8.25009 1.92561L8.0414 1.73778C6.34514 0.211152 3.6348 1.2956 3.45977 3.57096L3.44673 3.74047C3.41145 4.19913 3.10028 4.59001 2.66121 4.72722C0.522258 5.39564 0.570872 8.4396 2.73008 9.03938L4.05208 9.4066C4.27248 9.46783 4.47331 9.585 4.63505 9.74675L5.35935 10.471C6.27243 11.3841 7.66734 11.6105 8.82231 11.033L9.60861 10.6398C9.79309 10.5476 9.99461 10.4944 10.2006 10.4836L12.1593 10.3805C14.7368 10.2448 15.8 7.00973 13.8172 5.35738C13.5425 5.12848 13.3663 4.80153 13.3268 4.44617L13.2874 4.09141C13.0938 2.34907 11.2243 1.33202 9.65628 2.11601C9.19298 2.34766 8.63511 2.27212 8.25009 1.92561Z" stroke="black" style="stroke:black;stroke-opacity:1;" stroke-width="1.5" stroke-linecap="round" stroke-linejoin="round"/>
</svg>
