<svg width="16" height="16" viewBox="0 0 16 16" fill="none" xmlns="http://www.w3.org/2000/svg">
<path d="M6 6H3.75C2.50736 6 1.5 4.99264 1.5 3.75C1.5 2.50736 2.50736 1.5 3.75 1.5C4.99264 1.5 6 2.50736 6 3.75V6ZM6 6V10M6 6H10M6 10V12.25C6 13.4926 4.99264 14.5 3.75 14.5C2.50736 14.5 1.5 13.4926 1.5 12.25C1.5 11.0074 2.50736 10 3.75 10H6ZM6 10H10M10 10H12.25C13.4926 10 14.5 11.0074 14.5 12.25C14.5 13.4926 13.4926 14.5 12.25 14.5C11.0074 14.5 10 13.4926 10 12.25V10ZM10 10V6M10 6V3.75C10 2.50736 11.0074 1.5 12.25 1.5C13.4926 1.5 14.5 2.50736 14.5 3.75C14.5 4.99264 13.4926 6 12.25 6H10Z" stroke="black" style="stroke:black;stroke-opacity:1;" stroke-width="1.5" stroke-linecap="round"/>
</svg>
