<svg width="16" height="16" viewBox="0 0 16 16" fill="none" xmlns="http://www.w3.org/2000/svg">
<path d="M2.7 12H13.3C13.9627 12 14.5 11.4627 14.5 10.8C14.5 10.2807 14.3316 9.77543 14.02 9.36L13.3231 8.43077C13.1134 8.15115 13 7.81106 13 7.46154V6C13 3.23858 10.7614 1 8 1C5.23858 1 3 3.23858 3 6V7.46154C3 7.81106 2.88664 8.15115 2.67692 8.43077L1.98 9.36C1.66843 9.77543 1.5 10.2807 1.5 10.8C1.5 11.4627 2.03726 12 2.7 12Z" stroke="black" style="stroke:black;stroke-opacity:1;" stroke-width="1.5"/>
<path d="M6.00002 12.3333C6.00002 12.1492 6.14926 12 6.33335 12H9.66669C9.85078 12 10 12.1492 10 12.3333V13C10 14.1046 9.10459 15 8.00002 15C6.89545 15 6.00002 14.1046 6.00002 13V12.3333Z" stroke="black" style="stroke:black;stroke-opacity:1;" stroke-width="1.5"/>
</svg>
