<svg width="16" height="16" viewBox="0 0 16 16" fill="none" xmlns="http://www.w3.org/2000/svg">
<path d="M6.80473 1.57632C7.40496 0.784723 8.595 0.784722 9.19523 1.57632L9.6128 2.12702C9.94031 2.55895 10.4754 2.78058 11.0124 2.70674L11.697 2.6126C12.6812 2.47729 13.5227 3.31877 13.3874 4.30294L13.2932 4.98761C13.2194 5.52461 13.441 6.05967 13.873 6.38718L14.4237 6.80475C15.2153 7.40498 15.2153 8.59502 14.4237 9.19525L13.873 9.61282C13.441 9.94033 13.2194 10.4754 13.2932 11.0124L13.3874 11.6971C13.5227 12.6812 12.6812 13.5227 11.697 13.3874L11.0124 13.2933C10.4754 13.2194 9.94031 13.4411 9.6128 13.873L9.19523 14.4237C8.595 15.2153 7.40497 15.2153 6.80473 14.4237L6.38716 13.873C6.05966 13.4411 5.5246 13.2194 4.9876 13.2933L4.30293 13.3874C3.31875 13.5227 2.47727 12.6812 2.61259 11.6971L2.70673 11.0124C2.78056 10.4754 2.55893 9.94033 2.12701 9.61282L1.57631 9.19525C0.784705 8.59502 0.784704 7.40498 1.5763 6.80475L2.127 6.38718C2.55893 6.05967 2.78056 5.52461 2.70673 4.98761L2.61259 4.30294C2.47727 3.31877 3.31875 2.47729 4.30293 2.6126L4.98759 2.70674C5.52459 2.78058 6.05966 2.55895 6.38716 2.12702L6.80473 1.57632Z" stroke="black" style="stroke:black;stroke-opacity:1;" stroke-width="1.5"/>
<path d="M4.99998 8.0394C4.99998 6.36079 6.36077 5 8.03938 5C9.718 5 11.0788 6.36079 11.0788 8.0394C11.0788 9.71801 9.718 11.0788 8.03938 11.0788C6.36077 11.0788 4.99998 9.71801 4.99998 8.0394Z" stroke="black" style="stroke:black;stroke-opacity:1;" stroke-width="1.5"/>
</svg>
