<svg width="16" height="16" viewBox="0 0 16 16" fill="none" xmlns="http://www.w3.org/2000/svg">
<path d="M7.77149 1.72535C7.84399 1.49519 8.16824 1.49117 8.24644 1.71945L9.07193 4.12922C9.52245 5.44441 10.5556 6.47752 11.8708 6.92805L14.2805 7.75354C14.5088 7.83174 14.5048 8.15599 14.2746 8.2285L11.9766 8.95242C10.6007 9.38587 9.51594 10.4527 9.05969 11.8213L8.24713 14.2587C8.17017 14.4895 7.84227 14.4855 7.77094 14.2529L7.0575 11.9258C6.61974 10.4979 5.50206 9.38024 4.07416 8.94247L1.7471 8.22904C1.51445 8.15772 1.51046 7.82981 1.74131 7.75286L4.17869 6.94028C5.54725 6.48403 6.6141 5.39931 7.04756 4.02337L7.77149 1.72535Z" stroke="black" style="stroke:black;stroke-opacity:1;" stroke-width="1.5" stroke-linejoin="round"/>
</svg>
