<svg width="16" height="16" viewBox="0 0 16 16" fill="none" xmlns="http://www.w3.org/2000/svg">
<path d="M5.5 12.5C5.5 13.1403 5.24565 13.7544 4.79289 14.2071L4.2931 14.7069C4.18494 14.8151 4.26154 15 4.4145 15H11.5855C11.7385 15 11.8151 14.8151 11.7069 14.7069L11.2071 14.2071C10.7544 13.7544 10.5 13.1403 10.5 12.5M9.5 6C9.5 6.82843 8.82843 7.5 8 7.5C7.17157 7.5 6.5 6.82843 6.5 6C6.5 5.17157 7.17157 4.5 8 4.5C8.82843 4.5 9.5 5.17157 9.5 6ZM13 6C13 8.76142 10.7614 11 8 11C5.23858 11 3 8.76142 3 6C3 3.23858 5.23858 1 8 1C10.7614 1 13 3.23858 13 6Z" stroke="black" style="stroke:black;stroke-opacity:1;" stroke-width="1.5" stroke-linecap="round" stroke-linejoin="round"/>
</svg>
